<svg id="twitter.png_twitter.svg" data-name="twitter.png,twitter.svg" xmlns="http://www.w3.org/2000/svg" xmlns:xlink="http://www.w3.org/1999/xlink" width="32.281" height="26.844" viewBox="0 0 32.281 26.844">
  <defs>
    <style>
      .cls-1 {
        fill: #fff;
        fill-opacity: 0.4;
        fill-rule: evenodd;
        filter: url(#filter);
      }
    </style>
    <filter id="filter" x="735.344" y="596.844" width="32.281" height="26.844" filterUnits="userSpaceOnUse">
      <feFlood result="flood" flood-color="#fff"/>
      <feComposite result="composite" operator="in" in2="SourceGraphic"/>
      <feBlend result="blend" in2="SourceGraphic"/>
    </filter>
  </defs>
  <path id="twitter" class="cls-1" d="M757.3,596.844a6.729,6.729,0,0,1,5.237,2.127,10.555,10.555,0,0,0,3.4-1.171l0.824-.462a6.786,6.786,0,0,1-2.15,3.184,3.142,3.142,0,0,1-.727.528v0.017a12.234,12.234,0,0,0,3.75-1.04v0.017a10.906,10.906,0,0,1-2.247,2.638l-1.034.842a19.887,19.887,0,0,1-.308,4.354c-1.654,7.612-6.039,12.78-12.979,14.994a19.41,19.41,0,0,1-9.375.4,23.814,23.814,0,0,1-3.895-1.3,15.33,15.33,0,0,1-1.875-.99l-0.582-.363a10.641,10.641,0,0,0,2.117.083c0.652-.108,1.29-0.08,1.891-0.214a13.373,13.373,0,0,0,3.977-1.469,7.375,7.375,0,0,0,1.794-1.2,5.494,5.494,0,0,1-1.972-.363,6.736,6.736,0,0,1-4.2-4.338c0.65,0.073,2.521.246,2.958-.132a4.786,4.786,0,0,1-2.166-.891,6.555,6.555,0,0,1-3.119-5.806l0.679,0.331a7.256,7.256,0,0,0,1.39.4,1.972,1.972,0,0,0,.9.082h-0.032c-0.334-.4-0.878-0.663-1.213-1.089a7.049,7.049,0,0,1-1.487-6.153,8.009,8.009,0,0,1,.711-1.764L737.6,598.1a4.144,4.144,0,0,0,.6.71,12.324,12.324,0,0,0,1.972,1.929,19.333,19.333,0,0,0,8.1,4.009,12.385,12.385,0,0,0,2.974.395,6.445,6.445,0,0,1,.032-3.183,6.647,6.647,0,0,1,3.75-4.552,7.833,7.833,0,0,1,1.471-.462C756.76,596.909,757.03,596.877,757.3,596.844Z" transform="translate(-735.344 -596.844)"/>
</svg>
